<mxfile host="app.diagrams.net" modified="2024-01-31T11:25:29.482Z" agent="Mozilla/5.0 (Windows NT 10.0; Win64; x64) AppleWebKit/537.36 (KHTML, like Gecko) Chrome/121.0.0.0 Safari/537.36" etag="9pRBSP9KFCrMKGpojnOR" version="23.0.2" type="device">
  <diagram name="Página-1" id="Iozpdk1rdxElsHcu48Tl">
    <mxGraphModel dx="880" dy="434" grid="1" gridSize="10" guides="1" tooltips="1" connect="1" arrows="1" fold="1" page="1" pageScale="1" pageWidth="827" pageHeight="1169" math="0" shadow="0">
      <root>
        <mxCell id="0" />
        <mxCell id="1" parent="0" />
        <mxCell id="WrPRDyawMP4vhuyF6elP-1" value="MECANICO" style="shape=umlActor;verticalLabelPosition=bottom;verticalAlign=top;html=1;outlineConnect=0;" vertex="1" parent="1">
          <mxGeometry x="130" y="150" width="30" height="60" as="geometry" />
        </mxCell>
        <mxCell id="WrPRDyawMP4vhuyF6elP-2" value="" style="whiteSpace=wrap;html=1;aspect=fixed;fillColor=none;" vertex="1" parent="1">
          <mxGeometry x="340" y="40" width="370" height="370" as="geometry" />
        </mxCell>
        <mxCell id="WrPRDyawMP4vhuyF6elP-3" value="SISTEMA" style="text;html=1;align=center;verticalAlign=middle;resizable=0;points=[];autosize=1;strokeColor=none;fillColor=none;" vertex="1" parent="1">
          <mxGeometry x="400" y="18" width="80" height="30" as="geometry" />
        </mxCell>
        <mxCell id="WrPRDyawMP4vhuyF6elP-5" value="Gerar ordens de Serviços" style="ellipse;whiteSpace=wrap;html=1;" vertex="1" parent="1">
          <mxGeometry x="370" y="60" width="110" height="62" as="geometry" />
        </mxCell>
        <mxCell id="WrPRDyawMP4vhuyF6elP-6" value="Cadastrar clientes" style="ellipse;whiteSpace=wrap;html=1;" vertex="1" parent="1">
          <mxGeometry x="414" y="130" width="100" height="60" as="geometry" />
        </mxCell>
        <mxCell id="WrPRDyawMP4vhuyF6elP-7" value="Cadastrar motocicletas" style="ellipse;whiteSpace=wrap;html=1;" vertex="1" parent="1">
          <mxGeometry x="380" y="200" width="100" height="60" as="geometry" />
        </mxCell>
        <mxCell id="WrPRDyawMP4vhuyF6elP-8" value="Cadastrar peças" style="ellipse;whiteSpace=wrap;html=1;" vertex="1" parent="1">
          <mxGeometry x="400" y="270" width="100" height="60" as="geometry" />
        </mxCell>
        <mxCell id="WrPRDyawMP4vhuyF6elP-12" value="" style="endArrow=classic;html=1;rounded=0;entryX=0.036;entryY=0.694;entryDx=0;entryDy=0;entryPerimeter=0;" edge="1" parent="1" target="WrPRDyawMP4vhuyF6elP-5">
          <mxGeometry width="50" height="50" relative="1" as="geometry">
            <mxPoint x="170" y="160" as="sourcePoint" />
            <mxPoint x="270" y="170" as="targetPoint" />
          </mxGeometry>
        </mxCell>
        <mxCell id="WrPRDyawMP4vhuyF6elP-13" value="" style="endArrow=classic;html=1;rounded=0;entryX=0;entryY=0.5;entryDx=0;entryDy=0;" edge="1" parent="1" target="WrPRDyawMP4vhuyF6elP-6">
          <mxGeometry width="50" height="50" relative="1" as="geometry">
            <mxPoint x="180" y="170" as="sourcePoint" />
            <mxPoint x="384" y="113" as="targetPoint" />
          </mxGeometry>
        </mxCell>
        <mxCell id="WrPRDyawMP4vhuyF6elP-14" value="" style="endArrow=classic;html=1;rounded=0;" edge="1" parent="1" target="WrPRDyawMP4vhuyF6elP-7">
          <mxGeometry width="50" height="50" relative="1" as="geometry">
            <mxPoint x="190" y="180" as="sourcePoint" />
            <mxPoint x="394" y="123" as="targetPoint" />
          </mxGeometry>
        </mxCell>
        <mxCell id="WrPRDyawMP4vhuyF6elP-15" value="" style="endArrow=classic;html=1;rounded=0;entryX=0;entryY=0.5;entryDx=0;entryDy=0;" edge="1" parent="1" target="WrPRDyawMP4vhuyF6elP-8">
          <mxGeometry width="50" height="50" relative="1" as="geometry">
            <mxPoint x="190" y="190" as="sourcePoint" />
            <mxPoint x="404" y="133" as="targetPoint" />
          </mxGeometry>
        </mxCell>
      </root>
    </mxGraphModel>
  </diagram>
</mxfile>
